<?xml version="1.0" standalone="no"?>
<!DOCTYPE svg PUBLIC "-//W3C//DTD SVG 20010904//EN"
 "http://www.w3.org/TR/2001/REC-SVG-20010904/DTD/svg10.dtd">
<svg version="1.0" xmlns="http://www.w3.org/2000/svg"
 width="1295.000000pt" height="1295.000000pt" viewBox="0 0 1295.000000 1295.000000"
 preserveAspectRatio="xMidYMid meet">
<metadata>
Created by potrace 1.11, written by Peter Selinger 2001-2013
</metadata>
<g transform="translate(0.000000,1295.000000) scale(0.100000,-0.100000)"
fill="#000000" stroke="none">
<path d="M4130 8555 c-30 -6 -62 -14 -70 -18 -59 -26 -254 -35 -283 -12 -11 7
-37 17 -59 20 -32 6 -44 3 -61 -13 -12 -11 -40 -25 -62 -32 -22 -7 -48 -16
-57 -21 -10 -5 -28 -9 -40 -9 -38 0 -101 -49 -127 -97 -14 -27 -29 -196 -20
-220 4 -10 8 -32 8 -48 1 -17 5 -35 9 -40 5 -6 23 -48 41 -94 50 -128 67 -151
114 -151 15 0 27 -5 27 -11 0 -7 12 -8 33 -4 56 11 62 14 72 37 7 15 23 25 48
30 21 4 57 18 80 31 26 15 56 23 77 22 19 -2 40 1 45 5 6 4 29 7 53 6 23 0 42
2 42 6 0 4 20 13 45 19 25 6 45 15 45 20 0 5 4 9 10 9 5 0 6 -8 3 -17 -6 -16
-5 -16 10 -4 10 8 20 12 22 9 6 -6 27 -203 26 -237 -1 -13 4 -30 10 -37 8 -10
8 -14 1 -14 -15 0 -8 -65 8 -85 10 -12 9 -16 -4 -21 -9 -3 -13 -11 -9 -17 9
-14 13 -48 18 -142 2 -44 7 -116 10 -160 3 -44 8 -116 10 -160 2 -44 10 -133
16 -198 11 -111 14 -119 40 -137 20 -15 29 -17 32 -8 3 7 6 3 6 -9 1 -14 7
-23 17 -23 13 0 14 -3 5 -14 -10 -11 -8 -16 8 -21 10 -3 26 -17 35 -30 9 -14
23 -25 32 -25 8 0 13 -4 10 -8 -2 -4 7 -8 22 -7 l27 0 -3 71 c-3 57 0 75 14
89 15 14 18 37 18 144 0 229 -12 367 -49 551 -17 87 -20 220 -4 270 11 38 37
177 41 228 1 6 5 12 10 12 5 0 7 4 4 9 -3 5 5 20 19 32 13 13 25 29 25 35 0 7
6 14 14 17 21 8 48 173 29 186 -19 14 -83 110 -83 126 0 18 -23 45 -38 45 -5
0 -17 9 -27 20 -14 16 -15 23 -6 34 19 23 -15 65 -54 67 -94 6 -187 4 -235 -6z"/>
<path d="M4680 8461 c0 -5 19 -12 43 -16 23 -3 54 -8 70 -11 15 -3 27 -3 27 0
0 11 -53 28 -97 32 -24 2 -43 0 -43 -5z"/>
<path d="M5878 8306 c-38 -35 -53 -60 -82 -135 -20 -51 -36 -103 -36 -115 0
-12 -5 -27 -11 -33 -10 -10 -29 -161 -24 -193 2 -8 6 -90 10 -183 7 -154 9
-170 31 -203 13 -19 24 -37 24 -39 0 -3 24 -41 54 -85 30 -44 70 -106 90 -137
19 -32 50 -70 68 -84 75 -58 238 -153 308 -179 70 -25 86 -27 242 -28 207 -1
318 15 356 54 15 14 38 32 52 39 14 7 34 24 46 37 11 14 42 39 67 58 46 33 65
70 53 107 -8 24 -61 47 -89 39 -12 -4 -74 -9 -138 -12 -91 -5 -122 -3 -145 9
-16 8 -69 17 -119 20 -122 7 -215 41 -271 99 -35 37 -42 50 -42 86 -1 28 -12
62 -36 105 -41 74 -47 112 -16 104 29 -8 33 8 16 61 -38 118 -47 360 -17 486
12 48 21 92 21 97 0 5 -22 9 -49 9 -46 0 -50 -2 -70 -36 -19 -32 -25 -36 -56
-32 -19 2 -35 0 -35 -5 0 -14 -54 2 -68 21 -7 9 -12 31 -10 49 4 29 2 31 -12
18 -25 -23 -40 -18 -46 15 -4 17 -9 30 -13 30 -3 -1 -27 -20 -53 -44z"/>
<path d="M8957 8243 c-16 -15 -5 -54 31 -109 77 -120 98 -176 118 -315 12 -87
12 -122 3 -176 -20 -120 -70 -243 -121 -294 -22 -22 -28 -33 -20 -41 32 -32
134 72 179 182 54 134 47 482 -11 575 -7 11 -16 31 -19 45 -17 71 -130 164
-160 133z"/>
<path d="M8573 7970 c-28 -43 -11 -100 29 -100 25 0 48 54 39 89 -9 34 -51 41
-68 11z"/>
<path d="M8625 7530 c-22 -24 -14 -64 19 -85 28 -19 50 -12 65 21 15 34 14 50
-5 68 -21 22 -57 20 -79 -4z"/>
<path d="M6245 6861 c-2 -4 10 -18 27 -32 29 -22 43 -36 85 -81 8 -9 28 -20
44 -23 15 -4 46 -15 69 -26 22 -11 55 -22 73 -25 l32 -5 -25 18 c-14 9 -41 33
-60 53 -57 58 -230 144 -245 121z"/>
<path d="M8134 6081 c-2 -2 4 -10 14 -17 15 -12 15 -13 1 -14 -19 0 -36 -33
-20 -38 5 -2 7 -11 4 -20 -5 -14 -3 -15 8 -4 16 14 75 16 84 2 4 -6 -9 -10
-32 -10 -28 0 -34 -3 -23 -10 8 -5 32 -10 53 -10 32 0 37 -3 37 -24 0 -18 8
-27 31 -35 18 -6 40 -11 49 -11 10 0 20 -7 24 -15 5 -13 46 -22 46 -10 0 3
-28 35 -62 71 -69 73 -85 99 -62 108 21 8 17 23 -8 31 -24 8 -137 13 -144 6z"/>
<path d="M8677 5868 c11 -13 33 -36 48 -53 63 -68 113 -152 68 -113 -24 20
-51 29 -55 17 -4 -11 -106 26 -129 47 -8 8 -22 14 -29 14 -7 0 -21 6 -29 14
-9 8 -28 18 -43 21 -48 12 -33 -18 44 -86 39 -35 84 -82 100 -103 15 -22 56
-70 90 -107 53 -59 65 -67 88 -62 34 6 99 -38 142 -96 l28 -39 2 -309 c2 -383
-1 -431 -21 -435 -13 -3 -15 -29 -16 -168 -1 -91 1 -169 4 -175 3 -5 7 -27 8
-47 2 -21 13 -55 25 -76 13 -21 28 -46 34 -57 6 -10 24 -23 40 -28 16 -6 32
-15 36 -20 8 -13 122 99 113 112 -3 6 -16 11 -27 11 -12 0 -18 3 -14 7 4 4 15
8 24 8 15 0 17 12 17 85 0 47 -4 88 -10 93 -7 5 -6 9 1 15 14 8 -1 123 -17
133 -5 3 -7 12 -4 20 3 9 -5 27 -19 42 -30 32 -42 82 -26 102 9 10 11 44 8
106 -2 51 -1 83 3 73 8 -19 14 51 12 126 0 19 3 37 7 40 13 9 19 258 6 274 -6
7 -31 28 -55 45 -24 17 -40 31 -36 31 4 0 -3 10 -17 23 -25 23 -37 46 -44 86
-5 22 -39 79 -55 91 -4 3 -6 16 -5 29 1 19 -5 27 -24 32 -14 4 -19 7 -12 8 17
1 15 28 -3 35 -8 3 -15 11 -15 18 0 18 -91 113 -173 181 -67 57 -109 77 -70
35z"/>
<path d="M3952 5649 c-35 -4 -75 -15 -89 -24 -14 -9 -41 -18 -62 -20 -49 -4
-93 -15 -110 -29 -12 -9 -13 -8 -6 3 5 10 4 12 -3 7 -7 -4 -12 -13 -12 -20 0
-7 -18 -20 -40 -29 -23 -9 -40 -22 -40 -31 0 -9 -8 -16 -19 -16 -31 0 -34 -17
-4 -25 17 -4 29 -2 31 4 6 17 32 13 32 -4 0 -8 -7 -15 -15 -15 -8 0 -15 -5
-15 -11 0 -6 -9 -8 -22 -4 -18 4 -17 2 5 -10 20 -11 27 -23 25 -38 -3 -20 1
-22 57 -24 85 -2 129 -9 133 -22 2 -5 26 8 54 29 27 22 54 40 59 40 5 0 19 10
30 21 23 23 90 36 133 25 24 -6 26 -11 26 -62 0 -36 -7 -69 -21 -96 -20 -39
-20 -46 -9 -157 7 -64 13 -224 15 -356 2 -167 8 -263 19 -315 8 -41 18 -133
21 -204 3 -71 9 -134 12 -139 9 -16 5 -69 -6 -80 -20 -20 -11 -24 39 -22 28 1
52 -1 55 -5 6 -10 -52 -68 -76 -75 -38 -12 -20 -28 23 -21 42 7 42 7 23 -12
-11 -11 -22 -18 -23 -16 -2 1 -22 -7 -45 -19 l-41 -21 33 -14 c19 -7 41 -10
50 -7 9 4 43 9 76 12 77 7 115 20 95 33 -9 6 -10 10 -3 10 6 0 15 -5 18 -10 4
-7 13 -7 26 0 11 6 17 15 14 21 -4 5 -1 9 5 9 17 0 70 62 77 90 3 14 11 29 17
33 6 5 2 6 -9 2 -11 -4 -27 -7 -35 -6 -8 1 -40 2 -70 1 -53 -1 -55 0 -57 27
-1 20 6 34 23 48 14 11 33 27 42 35 10 8 31 22 48 30 29 14 34 19 34 38 0 4 4
1 8 -6 6 -9 13 -7 30 8 11 11 28 20 37 20 9 0 19 8 22 18 9 23 23 32 54 32 14
0 30 5 36 11 17 17 -6 36 -36 31 -23 -5 -24 -6 -6 -13 17 -7 16 -8 -7 -8 -15
-1 -33 -8 -42 -16 -8 -8 -20 -15 -26 -15 -6 0 -22 -7 -36 -16 -30 -20 -38 -15
-25 18 5 15 6 29 1 34 -16 16 -24 163 -19 349 0 22 -5 103 -11 180 -7 77 -14
160 -15 185 -4 67 -24 154 -39 165 -13 10 -25 58 -31 125 -2 19 -8 66 -15 103
-12 77 -9 90 23 78 21 -8 29 -10 45 -12 4 0 -2 -4 -13 -9 -18 -8 -17 -9 8 -9
16 -1 37 -6 48 -12 16 -8 25 -7 41 8 16 14 36 18 94 18 77 -1 92 7 49 27 -14
6 -25 15 -25 20 0 4 11 8 25 8 45 0 26 18 -37 34 -35 9 -74 17 -88 19 -14 1
-29 5 -35 9 -5 3 -66 11 -135 18 -69 6 -142 18 -162 25 -47 18 -153 24 -236
14z m-212 -78 c0 -6 -4 -13 -10 -16 -5 -3 -10 1 -10 9 0 9 5 16 10 16 6 0 10
-4 10 -9z m-65 -51 c3 -5 1 -10 -4 -10 -6 0 -11 5 -11 10 0 6 2 10 4 10 3 0 8
-4 11 -10z m540 -69 c3 -5 1 -12 -5 -16 -5 -3 -7 -20 -3 -38 5 -28 4 -30 -9
-17 -9 8 -18 30 -21 48 -6 27 -4 32 13 32 10 0 21 -4 25 -9z m-68 -7 c-3 -3
-12 -4 -19 -1 -8 3 -5 6 6 6 11 1 17 -2 13 -5z m263 -1439 c0 -11 -11 -15 -37
-15 -38 0 -38 0 -13 14 34 19 50 19 50 1z"/>
<path d="M6220 5180 c0 -5 5 -10 10 -10 6 0 10 5 10 10 0 6 -4 10 -10 10 -5 0
-10 -4 -10 -10z"/>
<path d="M6216 5138 c-2 -7 -8 -29 -15 -49 -6 -19 -11 -45 -11 -56 0 -11 -6
-36 -14 -54 -36 -87 -51 -254 -51 -574 0 -269 2 -319 18 -375 25 -89 37 -104
80 -96 19 4 47 16 61 27 32 26 34 75 7 199 -17 73 -18 101 -10 200 16 190 35
320 62 414 10 35 9 40 -11 56 -11 10 -20 19 -17 21 2 2 5 41 8 86 3 45 8 86
11 91 3 6 0 13 -6 16 -10 5 -10 7 0 12 14 7 17 34 3 34 -5 0 -14 -12 -19 -27
l-10 -28 -12 33 c-9 25 -16 31 -31 27 -16 -5 -19 -1 -19 24 0 30 -17 43 -24
19z"/>
<path d="M8913 5143 c-9 -3 -10 -10 -3 -24 6 -10 8 -19 6 -19 -3 0 -1 -11 4
-24 5 -13 12 -44 15 -67 4 -24 11 -48 15 -53 6 -6 5 -14 -1 -22 -10 -13 -3
-61 11 -69 12 -7 11 150 -1 212 -10 53 -25 74 -46 66z"/>
<path d="M8950 4825 c1 -26 2 -28 11 -12 8 14 8 22 0 30 -8 8 -11 3 -11 -18z"/>
<path d="M8963 4615 c0 -8 4 -15 9 -15 4 0 8 7 8 15 0 8 -4 15 -8 15 -5 0 -9
-7 -9 -15z"/>
<path d="M4747 4419 c-9 -5 -24 -23 -32 -39 -9 -18 -21 -27 -29 -24 -22 9 -30
-16 -10 -31 11 -7 20 -9 22 -4 2 5 19 16 38 25 19 9 34 21 34 26 0 5 7 16 15
25 27 27 -1 43 -38 22z"/>
<path d="M4865 4349 c-4 -6 -5 -12 -2 -15 7 -7 37 7 37 17 0 13 -27 11 -35 -2z"/>
<path d="M4820 4299 c0 -5 5 -7 10 -4 6 3 10 8 10 11 0 2 -4 4 -10 4 -5 0 -10
-5 -10 -11z"/>
</g>
</svg>
